<?xml version="1.0" standalone="no"?><!DOCTYPE svg PUBLIC "-//W3C//DTD SVG 1.1//EN" "http://www.w3.org/Graphics/SVG/1.1/DTD/svg11.dtd"><svg t="1712802446867" class="icon" viewBox="0 0 1177 1024" version="1.1" xmlns="http://www.w3.org/2000/svg" p-id="6966" width="20.689453125" height="18" xmlns:xlink="http://www.w3.org/1999/xlink"><path d="M998.316883 921.516883v102.510823h-51.2v-102.510823H230.372294v102.510823H179.172294v-102.510823H0V0h1177.489177v921.516883z m128-870.316883h-1074.978355v819.116883h1074.978355z m-665.544589 128H102.4V128H460.744589z m0 204.772294H102.4v-51.2H460.744589z m0 204.772295H102.4v-51.2H460.744589zM153.489177 793.489177H102.4v-51.2H153.489177z m153.572295 0H256v-51.2h51.2z m153.572294 0h-51.061472v-51.2h51.172295z m460.744589-358.372294h153.572294L716.744589 819.116883V486.344589h-153.6L921.516883 102.372294z m-51.2 0V235.497835l-191.972294 199.674459h89.6v250.846754l191.972294-199.646754h-89.461472v-51.2z" fill="#ffffff" p-id="6967"></path></svg>